<svg version="1.1" id="Layer_1" xmlns="http://www.w3.org/2000/svg" xmlns:xlink="http://www.w3.org/1999/xlink" viewBox="0 0 1024 1024" xml:space="preserve">
<path fill="none" opacity="1.000000" stroke="none" 
	d="
M703.000000,1025.000000 
	C468.666656,1025.000000 234.833328,1025.000000 1.000000,1025.000000 
	C1.000000,683.666687 1.000000,342.333344 1.000000,1.000000 
	C342.333344,1.000000 683.666687,1.000000 1025.000000,1.000000 
	C1025.000000,342.333344 1025.000000,683.666687 1025.000000,1025.000000 
	C917.833313,1025.000000 810.666687,1025.000000 703.000000,1025.000000 
M686.005737,371.999939 
	C686.005737,371.999939 685.975281,372.003479 685.856628,371.503876 
	C685.577942,371.323029 685.299316,371.142181 684.998352,370.998962 
	C684.998352,370.998962 685.034241,370.974670 684.760681,370.355804 
	C678.874939,366.818085 672.989136,363.280396 666.670593,359.211853 
	C659.107849,356.163177 651.545166,353.114502 643.398682,349.638184 
	C622.076843,342.140778 600.109985,337.909271 577.265503,336.098541 
	C575.886597,345.389587 574.578735,354.202271 573.017334,363.820862 
	C572.224915,369.492401 571.432495,375.163940 570.098999,381.437592 
	C569.833557,384.700745 569.568115,387.963928 569.305603,391.190399 
	C577.964844,393.775726 586.482483,396.318817 595.595764,399.286224 
	C606.326965,404.556885 617.058228,409.827515 628.156067,415.674164 
	C640.948120,424.453430 652.792175,434.221527 661.205078,448.509338 
	C668.647461,432.063995 675.677917,416.528839 683.158142,400.413818 
	C685.246582,395.767029 687.343384,391.123993 689.421570,386.472626 
	C692.670166,379.201630 692.664795,379.199219 686.750122,372.562775 
	C686.579285,372.270538 686.327698,372.092590 686.005737,371.999939 
M649.008240,599.999695 
	C649.008240,599.999695 648.990662,599.953918 649.529541,599.678833 
	C649.825867,599.156250 650.122253,598.633667 650.940979,597.683472 
	C652.319092,594.849487 653.697205,592.015442 655.766968,589.012207 
	C661.763428,579.844238 665.212524,569.754028 666.926453,558.147339 
	C666.959473,556.760864 666.992493,555.374329 667.291687,553.520813 
	C667.244385,552.663452 667.197021,551.806091 667.362549,550.109314 
	C667.263489,548.311768 666.992371,546.504456 667.094604,544.718384 
	C667.593140,536.008240 665.794495,527.803284 661.887878,519.311218 
	C657.925476,513.545898 653.963135,507.780609 649.795532,501.371460 
	C641.888306,494.506287 633.981018,487.641083 625.697327,480.225067 
	C616.841003,475.985535 607.984680,471.746002 598.601624,467.079865 
	C592.459656,464.858185 586.317749,462.636536 579.575439,460.062378 
	C572.457642,457.865326 565.339844,455.668274 557.590210,453.128296 
	C550.780762,450.941498 543.971313,448.754730 537.517273,445.859650 
	C537.633179,444.252350 537.749084,442.645020 538.091309,440.384369 
	C538.073181,439.927521 538.054993,439.470703 538.403687,438.334442 
	C540.029846,427.242859 541.656006,416.151276 543.697876,404.419464 
	C544.998596,395.284912 546.299255,386.150360 547.914062,376.229767 
	C548.999573,368.499207 550.085144,360.768677 551.560120,352.370789 
	C552.324402,346.860260 553.088684,341.349701 553.939087,335.217834 
	C544.671326,335.847778 536.038208,336.434570 527.330017,337.026489 
	C526.338379,343.726685 525.442932,349.777039 524.088379,356.481049 
	C523.025208,364.986938 521.962036,373.492828 520.574646,382.714844 
	C519.175903,392.146912 517.777161,401.579010 516.109619,411.811646 
	C514.827576,420.541321 513.545532,429.270996 512.010071,438.723877 
	C511.088013,439.343994 510.033569,440.618591 509.268158,440.463776 
	C506.787872,439.962158 504.413574,438.936188 501.415039,437.707642 
	C499.605560,436.868713 497.790680,436.041290 495.987610,435.188782 
	C489.608215,432.172607 488.575500,429.805634 490.551056,422.938782 
	C490.909454,421.692993 491.100739,420.399078 491.712982,418.426605 
	C492.811249,410.284332 493.909515,402.142059 495.303192,393.218445 
	C495.905212,388.477142 496.507263,383.735809 497.504761,378.318634 
	C498.234711,373.505951 498.964630,368.693298 499.939575,363.172668 
	C500.317169,360.119415 500.694763,357.066132 501.430817,353.331268 
	C502.014557,348.970184 502.598328,344.609070 503.277252,339.536926 
	C496.771332,341.230133 491.127991,342.534882 485.582947,344.172546 
	C468.595428,349.189667 452.552063,356.095062 438.504578,368.320953 
	C433.532837,373.579132 428.561066,378.837311 423.041351,384.553192 
	C420.052643,389.183380 417.063934,393.813568 413.559387,398.854095 
	C411.450897,404.237976 409.342377,409.621857 406.940125,415.754364 
	C404.495178,425.100494 403.493164,434.492798 405.962524,444.793884 
	C408.283264,455.302917 412.903229,464.575409 420.987244,472.760864 
	C428.737854,480.899048 437.622742,487.453400 448.330200,492.602142 
	C455.660675,495.817535 462.991150,499.032959 470.812347,502.848206 
	C479.875702,505.895782 488.939087,508.943359 498.515625,512.469543 
	C499.039062,513.650391 499.562500,514.831177 499.819794,516.765564 
	C498.229736,528.181580 496.639679,539.597534 494.750946,551.750183 
	C492.511871,567.167908 490.272827,582.585693 487.752808,598.740417 
	C486.514343,607.495178 485.275879,616.249878 483.768250,625.745056 
	C482.243744,635.978821 480.719269,646.212646 479.201660,656.400146 
	C488.381134,656.400146 496.916199,656.400146 505.709961,656.400146 
	C507.394775,644.620056 509.009674,633.328918 510.901154,621.235718 
	C511.614136,615.530151 512.327087,609.824585 513.393494,603.441895 
	C513.353821,601.757263 513.314148,600.072693 513.598877,598.165161 
	C513.741821,597.944763 513.831543,597.704468 514.326599,596.879211 
	C514.895935,593.471802 515.545044,590.075378 516.019470,586.654846 
	C517.388306,576.786072 518.686707,566.907471 520.392395,556.345215 
	C522.279175,544.235901 524.165894,532.126526 526.748230,520.173584 
	C528.120422,520.546997 529.492554,520.920410 531.351196,521.849060 
	C541.920898,524.697266 551.984558,528.673340 561.240601,535.728455 
	C568.323669,539.767212 570.771973,546.586182 572.118774,554.933105 
	C571.075317,561.616089 570.031860,568.299011 568.473755,575.427856 
	C562.747253,586.865479 552.972168,593.548889 541.651306,598.532715 
	C539.933777,599.288879 537.662598,600.818420 537.340149,602.347229 
	C536.187073,607.814697 535.762390,613.435852 534.917480,619.843994 
	C534.292419,624.232178 533.667358,628.620422 532.744629,633.739014 
	C531.656555,640.735046 530.568481,647.731079 529.253845,656.183655 
	C542.919373,653.630981 555.748108,651.932922 568.205078,648.770508 
	C599.471924,640.833130 627.845886,627.678833 648.059265,601.080017 
	C648.059265,601.080017 648.072937,601.142151 648.552063,600.929993 
	C648.687744,600.620178 648.823425,600.310303 649.008240,599.999695 
M563.260010,674.998962 
	C562.306519,675.283997 561.353088,675.569092 559.928162,675.669983 
	C559.620178,675.792175 559.312256,675.914429 558.157898,675.972473 
	C542.690308,678.260254 527.262390,680.866638 511.561646,681.081848 
	C503.251068,681.195801 494.944519,681.625000 486.634033,681.714844 
	C480.660736,681.779480 474.683899,681.518066 467.962769,681.203247 
	C454.095062,679.831726 440.227325,678.460205 425.843140,676.846191 
	C410.232025,673.249939 394.620911,669.653748 378.412598,665.623108 
	C369.783600,662.344666 361.154572,659.066162 352.038544,655.252441 
	C339.027344,647.278931 326.016144,639.305420 312.570618,630.787659 
	C304.156525,622.898926 295.742432,615.010254 287.035858,606.847290 
	C281.496460,620.052246 276.034637,633.072266 270.101501,646.675964 
	C265.404480,657.781921 260.707428,668.887939 255.504715,680.482544 
	C253.648834,684.823730 251.674347,689.120972 250.037201,693.543091 
	C249.710098,694.426697 250.670273,695.786865 251.572006,697.394714 
	C270.339478,703.688965 289.106964,709.983215 308.359680,716.863586 
	C321.849731,720.026672 335.339783,723.189758 349.407104,726.902466 
	C350.860931,727.112610 352.316345,727.312622 353.768372,727.534546 
	C361.182068,728.667297 368.594940,729.805664 376.685181,731.246399 
	C378.122559,731.454407 379.559967,731.662415 381.651825,732.063904 
	C382.102051,732.035095 382.552246,732.006226 383.753174,732.290894 
	C389.615540,733.198669 395.449554,734.416626 401.345642,734.954956 
	C417.856995,736.462585 434.393951,737.689575 450.937408,739.851135 
	C449.916260,747.888245 448.895111,755.925415 447.457947,764.606262 
	C447.090668,767.336853 446.723358,770.067444 446.318726,773.075500 
	C476.501678,773.075500 506.212036,773.075500 536.156799,773.075500 
	C537.684998,761.475830 539.177673,750.145813 540.718445,738.450500 
	C541.264343,738.371704 542.214600,738.170837 543.174133,738.105347 
	C575.046326,735.928589 606.346069,730.449646 637.182800,722.125305 
	C669.111267,713.506287 698.824524,700.268311 725.394043,680.388428 
	C727.274780,678.981201 728.631348,676.873291 730.933350,675.164490 
	C734.614441,671.637634 738.373718,668.187500 741.945068,664.552795 
	C743.839172,662.625122 745.407104,660.376953 747.816162,658.153320 
	C756.079285,649.428894 762.740662,639.728943 766.848572,627.832092 
	C768.940430,620.732300 771.032288,613.632568 773.629272,605.806641 
	C773.447021,596.192688 773.264832,586.578674 773.135071,576.136597 
	C771.502625,570.390503 769.870117,564.644348 768.151672,558.149170 
	C762.856445,543.672791 754.082092,531.682312 741.955505,521.261536 
	C732.363159,514.479126 722.770813,507.696747 712.809082,500.336609 
	C691.023499,487.310394 667.965637,477.234802 643.758667,469.912292 
	C650.383240,474.729858 657.204102,479.129425 663.724121,483.937042 
	C675.633484,492.718597 683.560974,504.819946 690.920715,518.097046 
	C693.567627,526.065918 696.214600,534.034851 698.789124,542.940002 
	C699.891235,555.110657 699.498047,567.175659 695.914673,579.710205 
	C692.233459,587.455933 688.552246,595.201660 684.255188,603.239319 
	C677.794495,611.796204 671.333862,620.353088 664.971619,628.963318 
	C664.971619,628.963318 664.913879,628.867371 664.233093,628.953125 
	C662.714417,630.260010 661.195679,631.566895 659.042969,633.059143 
	C650.002380,639.357605 640.961792,645.656067 631.208130,652.031555 
	C617.762390,657.532227 604.316589,663.032959 590.197449,668.547241 
	C582.412231,670.492249 574.627075,672.437317 566.105286,674.377808 
	C565.408997,674.610962 564.712646,674.844055 563.260010,674.998962 
M706.904785,356.748535 
	C707.237610,356.930573 707.570374,357.112640 708.229126,357.881165 
	C716.693481,366.096436 725.157837,374.311707 733.808105,382.707397 
	C739.974731,369.356415 746.296143,355.670441 753.077942,341.420227 
	C757.234680,332.658478 761.391357,323.896729 765.961731,314.614838 
	C768.986267,308.257782 772.010803,301.900726 775.296692,294.994537 
	C772.695374,294.195740 770.386902,293.486847 767.567261,292.290619 
	C760.513062,289.883057 753.482178,287.402802 746.387024,285.122742 
	C744.757324,284.599030 742.906616,284.763000 741.086914,283.890381 
	C727.061279,279.936157 713.035706,275.981934 698.207825,271.809235 
	C696.924255,271.730560 695.594238,271.841370 694.365356,271.539795 
	C689.559753,270.360352 684.786194,269.050568 679.344727,267.407959 
	C673.897339,266.397125 668.449951,265.386292 662.204102,264.104614 
	C660.909607,263.879608 659.622620,263.588837 658.319397,263.440033 
	C648.548950,262.324371 638.775269,261.236755 628.216614,259.958435 
	C622.476196,259.058533 616.735840,258.158600 610.214844,257.051971 
	C608.020569,257.028137 605.814148,257.143677 603.634460,256.953094 
	C598.141113,256.472870 592.659790,255.854691 586.395752,255.059647 
	C580.264343,254.707962 574.132874,254.356277 567.932495,253.148087 
	C568.275513,249.764343 568.618530,246.380615 569.257812,242.265808 
	C569.911560,238.100403 570.565369,233.934998 571.129089,230.343323 
	C542.849915,230.343323 515.309082,230.343323 487.503510,230.343323 
	C486.234863,238.813919 484.939056,246.334274 484.059021,253.902969 
	C483.711182,256.894867 482.706787,258.146088 479.641205,258.602722 
	C471.089691,259.876465 462.535767,261.258636 454.088501,263.086517 
	C419.891785,270.486420 386.010559,279.142487 354.634064,295.075714 
	C342.113800,301.433655 330.599396,309.772430 317.955048,317.443024 
	C310.182343,325.042145 302.409668,332.641296 294.013916,340.558685 
	C290.969849,345.027130 287.925781,349.495575 284.339325,354.354706 
	C281.932098,359.237091 279.524872,364.119476 276.682617,369.571564 
	C276.031921,371.337189 275.381195,373.102814 274.159454,375.350983 
	C272.637329,382.193481 271.115234,389.035950 269.084320,396.549561 
	C269.046143,402.701508 269.007965,408.853455 268.808533,415.904022 
	C269.800446,422.298615 270.792358,428.693176 271.776001,435.883728 
	C274.487244,442.651276 277.198486,449.418793 279.939301,456.892365 
	C285.611664,464.635223 291.284027,472.378113 297.194885,480.738708 
	C305.101837,487.905853 313.008820,495.072998 321.267273,502.799957 
	C329.487732,507.607941 337.708191,512.415894 346.305176,517.814270 
	C354.996735,521.262268 363.688324,524.710266 372.900635,528.731567 
	C383.938873,532.139404 394.977112,535.547302 406.634338,539.407654 
	C427.936279,543.933655 449.238251,548.459656 471.109955,553.106750 
	C471.903076,546.932312 472.507324,542.227966 473.030426,538.155640 
	C458.952301,531.819702 445.520599,525.774658 431.660736,519.217224 
	C425.841431,516.112183 420.022125,513.007202 413.837616,509.322449 
	C406.303650,503.848328 398.769653,498.374176 390.915558,492.301056 
	C386.412628,487.156158 381.909698,482.011230 377.167328,476.188904 
	C373.663483,468.763489 370.159607,461.338043 366.506561,453.094879 
	C364.984589,445.393250 363.462616,437.691620 362.104645,429.091980 
	C363.289734,420.444275 364.474792,411.796539 366.025055,402.611755 
	C370.054871,395.087708 374.084686,387.563660 378.694855,379.721832 
	C387.514282,371.171448 396.333679,362.621063 405.788452,353.854828 
	C417.875092,346.293396 429.579102,338.013397 442.132751,331.329041 
	C464.220245,319.568176 488.281128,313.828033 513.698853,310.829865 
	C514.822205,310.601898 515.945618,310.373932 517.710938,310.265839 
	C518.136414,310.190247 518.561951,310.114624 519.919678,310.151337 
	C532.613586,309.707825 545.307434,309.264343 558.885559,309.025604 
	C565.262024,309.332458 571.638428,309.639313 578.771423,310.231781 
	C594.803894,312.916718 610.836304,315.601654 627.366577,318.860046 
	C636.543335,321.643005 645.720093,324.425995 655.319336,327.799469 
	C664.450073,331.912811 673.580750,336.026154 683.122253,340.699005 
	C690.948669,345.879852 698.775146,351.060669 706.639709,356.216034 
	C706.639709,356.216034 706.685181,356.216248 706.904785,356.748535 
M393.614899,645.290466 
	C395.408905,645.761780 397.202881,646.233032 399.625153,646.983215 
	C400.079559,646.994751 400.533936,647.006287 401.611450,647.429993 
	C419.202454,652.056396 437.117737,654.460938 455.305542,655.871094 
	C456.825958,645.856445 458.256866,636.431519 459.942535,626.200439 
	C460.905914,619.477966 461.869293,612.755493 462.895721,605.593140 
	C457.404419,604.690308 452.201416,603.834839 446.375549,602.567505 
	C432.294617,597.223389 418.213654,591.879211 403.689972,586.063904 
	C397.457123,582.044312 391.224274,578.024719 384.683350,573.413147 
	C375.392487,564.029541 366.101624,554.645874 356.919495,545.372070 
	C350.846130,559.204834 344.322083,574.064026 337.262054,589.362488 
	C334.408081,595.793457 331.384491,602.158264 328.829620,608.705933 
	C328.252686,610.184570 329.307678,612.299866 329.854980,614.670349 
	C330.176727,614.889709 330.498474,615.109070 330.816071,615.375977 
	C330.816071,615.375977 330.785645,615.413025 331.124664,615.981628 
	C340.670502,621.348755 350.216339,626.715942 359.991272,632.581665 
	C360.320862,632.677673 360.650452,632.773682 361.433258,633.076294 
	C361.433258,633.076294 361.917572,633.192505 362.293579,633.797058 
	C363.963654,634.473816 365.611847,635.211975 367.307465,635.817078 
	C375.872650,638.873901 384.450195,641.896057 393.614899,645.290466 
z"/>
<path fill="#0138A5" opacity="1.000000" stroke="none" 
	d="
M559.004272,676.036682 
	C559.312256,675.914429 559.620178,675.792175 560.571899,675.828979 
	C562.658752,677.218018 563.913940,678.897827 565.580078,679.593689 
	C570.583008,681.683044 588.603149,677.117859 592.341003,673.170410 
	C594.747375,670.629089 594.176880,669.186401 590.870789,668.533691 
	C604.316589,663.032959 617.762390,657.532227 631.853882,652.195740 
	C636.018311,656.970581 637.236206,657.172852 641.716309,653.848633 
	C646.235596,650.495300 650.724365,648.597168 656.349854,651.955200 
	C658.154602,653.032532 661.257141,652.871704 663.449341,652.216980 
	C681.890198,646.709900 700.998718,645.023865 719.827576,641.704041 
	C730.108398,639.891418 739.867432,635.220886 749.943359,632.102844 
	C755.254944,630.459106 760.741760,629.381531 766.149475,628.048340 
	C762.740662,639.728943 756.079285,649.428894 747.375732,657.812866 
	C743.563904,654.686218 739.717468,655.229736 737.106079,657.785828 
	C733.552307,661.264465 729.357971,662.556824 724.920776,663.967102 
	C720.383362,665.409180 716.059021,667.507996 711.579712,669.151123 
	C707.705750,670.572144 703.811401,672.029724 699.811768,673.000183 
	C680.879333,677.593994 661.871704,681.881348 642.964600,686.575012 
	C633.008118,689.046692 623.344910,693.585571 613.293396,694.564697 
	C600.719727,695.789490 588.953674,699.139893 577.077576,702.802185 
	C563.629700,706.949158 550.224548,711.448364 536.504028,714.428528 
	C526.043030,716.700745 515.923462,718.772034 507.003937,725.232971 
	C504.696930,726.904175 500.724365,726.416748 497.497833,726.622131 
	C495.719635,726.735413 493.746613,725.656921 492.128357,726.097046 
	C484.401703,728.198730 476.745392,730.569641 469.105408,732.976135 
	C463.013000,734.895081 456.980133,737.003113 450.920807,739.027222 
	C434.393951,737.689575 417.856995,736.462585 401.345642,734.954956 
	C395.449554,734.416626 389.615540,733.198669 383.655884,731.849243 
	C390.939362,730.605042 398.307129,729.641357 405.704559,729.046936 
	C412.636078,728.489990 419.604584,728.405029 426.544281,727.929993 
	C428.316620,727.808716 430.505768,727.508240 431.709717,726.415527 
	C437.541779,721.122498 444.975739,719.991333 452.059906,717.764526 
	C456.920837,716.236511 461.574554,713.997864 466.226837,711.871033 
	C471.645782,709.393738 476.817657,706.316650 482.359894,704.183533 
	C489.147949,701.570862 496.171234,699.538574 503.162415,697.493225 
	C509.983154,695.497681 516.809204,693.351135 523.780212,692.076782 
	C535.230835,689.983521 547.105835,689.684570 557.092468,682.480591 
	C559.552673,680.705872 563.008850,679.578857 559.004272,676.036682 
z"/>
<path fill="#013099" opacity="1.000000" stroke="none" 
	d="
M450.929108,739.439209 
	C456.980133,737.003113 463.013000,734.895081 469.105408,732.976135 
	C476.745392,730.569641 484.401703,728.198730 492.128357,726.097046 
	C493.746613,725.656921 495.719635,726.735413 497.497833,726.622131 
	C500.724365,726.416748 504.696930,726.904175 507.003937,725.232971 
	C515.923462,718.772034 526.043030,716.700745 536.504028,714.428528 
	C550.224548,711.448364 563.629700,706.949158 577.077576,702.802185 
	C588.953674,699.139893 600.719727,695.789490 613.293396,694.564697 
	C623.344910,693.585571 633.008118,689.046692 642.964600,686.575012 
	C661.871704,681.881348 680.879333,677.593994 699.811768,673.000183 
	C703.811401,672.029724 707.705750,670.572144 711.579712,669.151123 
	C716.059021,667.507996 720.383362,665.409180 724.920776,663.967102 
	C729.357971,662.556824 733.552307,661.264465 737.106079,657.785828 
	C739.717468,655.229736 743.563904,654.686218 747.028809,657.872925 
	C745.407104,660.376953 743.839172,662.625122 741.945068,664.552795 
	C738.373718,668.187500 734.614441,671.637634 730.201843,675.072510 
	C726.259705,673.534729 724.285522,674.818176 721.716248,677.134644 
	C717.802856,680.663025 713.205322,683.713806 708.416138,685.921204 
	C701.883423,688.932312 694.830750,690.792236 688.124512,693.456421 
	C681.440613,696.111755 675.088684,699.718689 668.264648,701.875061 
	C660.102112,704.454407 651.479187,705.552979 643.262085,707.989197 
	C632.009949,711.325256 621.137024,716.086487 609.760803,718.817505 
	C597.607666,721.734985 585.028809,722.837097 572.692932,725.050476 
	C565.224854,726.390381 556.996521,726.822266 550.701965,730.435669 
	C544.446289,734.026978 538.555664,735.246399 531.852356,735.251221 
	C531.062866,735.251831 530.276794,735.750000 529.483948,736.001160 
	C521.886597,738.407532 514.289429,740.814087 506.689758,743.213196 
	C498.484833,745.803284 490.421051,749.726685 482.034027,750.624817 
	C471.999451,751.699402 463.549103,755.171082 455.459412,760.651489 
	C453.213776,762.172791 450.417542,762.881165 447.873932,763.962524 
	C448.895111,755.925415 449.916260,747.888245 450.929108,739.439209 
z"/>
<path fill="#7FC43D" opacity="1.000000" stroke="none" 
	d="
M318.627075,317.209473 
	C330.599396,309.772430 342.113800,301.433655 354.634064,295.075714 
	C386.010559,279.142487 419.891785,270.486420 454.088501,263.086517 
	C462.535767,261.258636 471.089691,259.876465 479.641205,258.602722 
	C482.706787,258.146088 483.711182,256.894867 484.059021,253.902969 
	C484.939056,246.334274 486.234863,238.813919 487.503510,230.343323 
	C515.309082,230.343323 542.849915,230.343323 571.129089,230.343323 
	C570.565369,233.934998 569.911560,238.100403 568.665527,242.632141 
	C564.955627,243.327133 561.740784,243.277206 558.737122,244.049072 
	C544.641602,247.671326 530.489929,251.148849 516.590393,255.431213 
	C508.720184,257.855988 501.495422,262.360382 493.636749,264.840820 
	C469.795929,272.365662 445.733582,279.186432 421.863892,286.622894 
	C405.758575,291.640442 389.835602,297.242676 373.826599,302.569977 
	C357.187469,308.106934 340.535492,313.605438 323.909058,319.180206 
	C321.487061,319.992279 319.318787,320.747437 318.627075,317.209473 
z"/>
<path fill="#73C242" opacity="1.000000" stroke="none" 
	d="
M318.291077,317.326233 
	C319.318787,320.747437 321.487061,319.992279 323.909058,319.180206 
	C340.535492,313.605438 357.187469,308.106934 373.826599,302.569977 
	C389.835602,297.242676 405.758575,291.640442 421.863892,286.622894 
	C445.733582,279.186432 469.795929,272.365662 493.636749,264.840820 
	C501.495422,262.360382 508.720184,257.855988 516.590393,255.431213 
	C530.489929,251.148849 544.641602,247.671326 558.737122,244.049072 
	C561.740784,243.277206 564.955627,243.327133 568.517334,242.997681 
	C568.618530,246.380615 568.275513,249.764343 567.817017,253.882126 
	C565.127686,256.365387 562.766785,258.675446 559.936768,259.749725 
	C553.599731,262.155182 547.086609,264.155396 540.542725,265.945862 
	C523.311890,270.660278 506.074249,275.269531 489.520050,282.170166 
	C483.483795,284.686340 476.989807,286.098419 470.717834,288.056519 
	C460.963287,291.101929 451.230682,294.217987 441.467743,297.236053 
	C436.104736,298.893921 430.706543,300.440216 425.307922,301.979797 
	C423.248047,302.567261 421.098511,302.858765 419.065186,303.517700 
	C402.055756,309.029663 385.112946,314.752258 368.052795,320.100922 
	C351.612122,325.255371 335.021698,329.931091 318.566742,335.041351 
	C311.933228,337.101501 305.460632,339.694336 298.965302,342.176910 
	C296.686707,343.047791 295.089874,343.110229 294.636993,340.240448 
	C302.409668,332.641296 310.182343,325.042145 318.291077,317.326233 
z"/>
<path fill="#4FBC55" opacity="1.000000" stroke="none" 
	d="
M518.987427,310.039032 
	C518.561951,310.114624 518.136414,310.190247 517.189697,309.926392 
	C515.446106,309.965393 514.223816,310.343872 513.001465,310.722351 
	C488.281128,313.828033 464.220245,319.568176 442.132751,331.329041 
	C429.579102,338.013397 417.875092,346.293396 405.125580,353.815338 
	C403.053253,353.789307 401.544891,353.475220 400.249542,353.866455 
	C385.848114,358.216217 371.444061,362.563751 357.111450,367.133667 
	C340.404785,372.460571 323.740814,377.925415 307.112213,383.491394 
	C297.717072,386.636078 288.453217,390.171143 279.081543,393.388580 
	C275.997345,394.447418 272.760284,395.061157 269.593140,395.878448 
	C271.115234,389.035950 272.637329,382.193481 274.730286,375.297119 
	C275.431824,376.433624 275.562531,377.624023 275.793701,379.729584 
	C279.872833,378.368530 283.738159,377.719696 286.931732,375.895111 
	C297.207764,370.024078 308.062622,366.094360 319.536835,363.102997 
	C339.690582,357.848877 359.616333,351.694702 379.549469,345.627960 
	C395.554138,340.756836 411.448853,335.519836 427.349030,330.312866 
	C432.690002,328.563812 437.788208,326.010223 443.189880,324.523773 
	C452.991486,321.826569 463.467407,321.240967 471.936096,314.619751 
	C472.927582,313.844543 474.386780,313.623840 475.661987,313.261810 
	C493.464966,308.207550 511.178589,302.801758 529.101807,298.215881 
	C561.183472,290.007416 591.624756,277.199677 622.485901,265.567627 
	C624.984985,264.625671 626.845398,261.989349 629.002625,260.140350 
	C638.775269,261.236755 648.548950,262.324371 658.319397,263.440033 
	C659.622620,263.588837 660.909607,263.879608 662.657410,264.566589 
	C664.725647,267.961700 662.662537,269.117950 660.502625,269.613953 
	C654.876953,270.905853 649.221924,272.217834 643.505005,272.934814 
	C631.008972,274.502136 618.542786,275.751740 607.236511,282.216766 
	C603.742432,284.214691 599.420166,284.752319 595.492310,286.005981 
	C583.854309,289.720490 572.239014,293.506927 560.583862,297.166443 
	C555.080750,298.894348 549.596741,300.940338 543.944153,301.875671 
	C535.150085,303.330841 526.817322,305.818604 518.987427,310.039032 
z"/>
<path fill="#01288C" opacity="1.000000" stroke="none" 
	d="
M447.665955,764.284363 
	C450.417542,762.881165 453.213776,762.172791 455.459412,760.651489 
	C463.549103,755.171082 471.999451,751.699402 482.034027,750.624817 
	C490.421051,749.726685 498.484833,745.803284 506.689758,743.213196 
	C514.289429,740.814087 521.886597,738.407532 529.483948,736.001160 
	C530.276794,735.750000 531.062866,735.251831 531.852356,735.251221 
	C538.555664,735.246399 544.446289,734.026978 550.701965,730.435669 
	C556.996521,726.822266 565.224854,726.390381 572.692932,725.050476 
	C585.028809,722.837097 597.607666,721.734985 609.760803,718.817505 
	C621.137024,716.086487 632.009949,711.325256 643.262085,707.989197 
	C651.479187,705.552979 660.102112,704.454407 668.264648,701.875061 
	C675.088684,699.718689 681.440613,696.111755 688.124512,693.456421 
	C694.830750,690.792236 701.883423,688.932312 708.416138,685.921204 
	C713.205322,683.713806 717.802856,680.663025 721.716248,677.134644 
	C724.285522,674.818176 726.259705,673.534729 729.850952,675.035767 
	C728.631348,676.873291 727.274780,678.981201 725.394043,680.388428 
	C698.824524,700.268311 669.111267,713.506287 637.182800,722.125305 
	C606.346069,730.449646 575.046326,735.928589 543.174133,738.105347 
	C542.214600,738.170837 541.264343,738.371704 540.718445,738.450500 
	C539.177673,750.145813 537.684998,761.475830 536.156799,773.075500 
	C506.212036,773.075500 476.501678,773.075500 446.318726,773.075500 
	C446.723358,770.067444 447.090668,767.336853 447.665955,764.284363 
z"/>
<path fill="#66C048" opacity="1.000000" stroke="none" 
	d="
M294.325439,340.399567 
	C295.089874,343.110229 296.686707,343.047791 298.965302,342.176910 
	C305.460632,339.694336 311.933228,337.101501 318.566742,335.041351 
	C335.021698,329.931091 351.612122,325.255371 368.052795,320.100922 
	C385.112946,314.752258 402.055756,309.029663 419.065186,303.517700 
	C421.098511,302.858765 423.248047,302.567261 425.307922,301.979797 
	C430.706543,300.440216 436.104736,298.893921 441.467743,297.236053 
	C451.230682,294.217987 460.963287,291.101929 470.717834,288.056519 
	C476.989807,286.098419 483.483795,284.686340 489.520050,282.170166 
	C506.074249,275.269531 523.311890,270.660278 540.542725,265.945862 
	C547.086609,264.155396 553.599731,262.155182 559.936768,259.749725 
	C562.766785,258.675446 565.127686,256.365387 567.851501,254.310379 
	C574.132874,254.356277 580.264343,254.707962 586.724243,255.642212 
	C586.534119,258.051849 586.587830,260.830109 585.400024,261.544647 
	C579.627075,265.017426 573.766785,268.608765 567.479919,270.905701 
	C556.311096,274.986206 544.799072,278.121857 533.458984,281.741791 
	C529.665405,282.952789 525.990295,284.531647 522.206604,285.777130 
	C507.906891,290.484100 493.585571,295.125458 479.269867,299.783691 
	C478.007202,300.194519 476.735504,300.583832 475.452606,300.925323 
	C466.034271,303.432343 456.497559,305.564362 447.219940,308.512451 
	C435.525452,312.228455 424.168762,317.025116 412.435547,320.597351 
	C396.606262,325.416687 380.496155,329.306244 364.617035,333.970947 
	C342.381683,340.502808 320.204956,347.244446 298.105927,354.221893 
	C293.444305,355.693695 289.249420,356.583069 284.881683,353.964020 
	C287.925781,349.495575 290.969849,345.027130 294.325439,340.399567 
z"/>
<path fill="#029EA0" opacity="1.000000" stroke="none" 
	d="
M447.913605,492.044556 
	C437.622742,487.453400 428.737854,480.899048 421.143677,472.276886 
	C423.549408,467.886597 427.096039,466.082947 431.406067,465.327148 
	C435.796234,464.557251 440.175446,463.689606 444.516174,462.679016 
	C460.209473,459.025299 475.409424,453.893463 489.736267,446.491486 
	C494.101532,444.236176 497.926208,440.934601 501.998474,438.112183 
	C504.413574,438.936188 506.787872,439.962158 509.268158,440.463776 
	C510.033569,440.618591 511.088013,439.343994 512.487793,438.262695 
	C513.609680,436.244690 514.253784,434.687836 514.536987,434.003387 
	C520.031616,434.003387 524.910461,433.986176 529.789185,434.008972 
	C533.525452,434.026459 536.673706,435.062042 538.036865,439.013855 
	C538.054993,439.470703 538.073181,439.927521 537.740601,440.946198 
	C537.313843,443.194672 537.237854,444.881287 537.161865,446.567932 
	C543.971313,448.754730 550.780762,450.941498 557.721924,453.648895 
	C556.211060,454.604645 554.592407,455.227448 552.921570,455.439789 
	C547.901978,456.077881 542.452026,455.514984 537.911804,457.303711 
	C527.003113,461.601410 516.498169,466.931793 505.865997,471.921631 
	C493.248474,477.843170 479.356812,478.695465 466.070282,481.935364 
	C458.971191,483.666473 452.359650,485.777618 447.913605,492.044556 
z"/>
<path fill="#014DB4" opacity="1.000000" stroke="none" 
	d="
M379.009766,666.057556 
	C394.620911,669.653748 410.232025,673.249939 425.981934,677.381775 
	C420.880585,682.035767 416.075409,686.961060 410.294891,690.076843 
	C402.325043,694.372864 393.730042,697.603882 385.203827,700.752197 
	C369.546478,706.533691 353.792389,712.067810 337.953857,717.329712 
	C335.318665,718.205139 332.014069,717.428162 329.085541,716.979309 
	C323.729889,716.158569 318.452148,714.769348 313.080536,714.148865 
	C311.448883,713.960327 309.615448,715.519043 307.874451,716.277466 
	C289.106964,709.983215 270.339478,703.688965 251.542694,696.916748 
	C259.024231,696.246277 266.256866,696.737305 273.750458,698.751343 
	C282.718109,701.161560 292.365265,701.071350 301.729095,701.946777 
	C302.986938,702.064392 304.310516,701.505005 305.600739,701.244629 
	C309.322479,700.493469 313.188721,700.148071 316.733734,698.895020 
	C324.575165,696.123413 333.030090,695.810120 340.359619,690.549561 
	C346.177460,686.373962 353.680603,684.230103 360.727600,682.196167 
	C365.328522,680.868164 368.913361,679.407410 371.232086,674.915649 
	C372.143188,673.150696 374.688354,671.393616 376.656891,671.180542 
	C381.034912,670.706543 381.677155,669.364990 379.009766,666.057556 
z"/>
<path fill="#013EAB" opacity="1.000000" stroke="none" 
	d="
M558.581055,676.004578 
	C563.008850,679.578857 559.552673,680.705872 557.092468,682.480591 
	C547.105835,689.684570 535.230835,689.983521 523.780212,692.076782 
	C516.809204,693.351135 509.983154,695.497681 503.162415,697.493225 
	C496.171234,699.538574 489.147949,701.570862 482.359894,704.183533 
	C476.817657,706.316650 471.645782,709.393738 466.226837,711.871033 
	C461.574554,713.997864 456.920837,716.236511 452.059906,717.764526 
	C444.975739,719.991333 437.541779,721.122498 431.709717,726.415527 
	C430.505768,727.508240 428.316620,727.808716 426.544281,727.929993 
	C419.604584,728.405029 412.636078,728.489990 405.704559,729.046936 
	C398.307129,729.641357 390.939362,730.605042 383.280548,731.692505 
	C382.552246,732.006226 382.102051,732.035095 381.251953,731.624084 
	C379.237427,731.103577 377.622772,731.022827 376.008087,730.942078 
	C368.594940,729.805664 361.182068,728.667297 353.768372,727.534546 
	C352.316345,727.312622 350.860931,727.112610 349.315552,726.296631 
	C352.822601,722.288635 356.816345,722.327148 361.203613,724.014038 
	C362.992218,724.701843 365.159576,725.219666 366.975311,724.873779 
	C373.239960,723.680298 379.446991,722.157288 385.636353,720.602173 
	C395.519409,718.118958 405.302002,715.190674 415.255249,713.045166 
	C424.764496,710.995361 433.515472,708.296204 438.271240,698.716125 
	C438.840454,697.569519 440.486420,696.609253 441.819672,696.245483 
	C452.305695,693.383911 462.841949,690.707031 473.351746,687.931580 
	C476.849213,687.007996 480.314697,685.963318 483.794830,684.974060 
	C483.646820,684.316833 483.498810,683.659668 483.350769,683.002441 
	C480.921967,683.002441 478.470093,683.210510 476.070679,682.944885 
	C473.590149,682.670227 471.160553,681.935486 468.708649,681.402100 
	C474.683899,681.518066 480.660736,681.779480 486.634033,681.714844 
	C494.944519,681.625000 503.251068,681.195801 511.561646,681.081848 
	C527.262390,680.866638 542.690308,678.260254 558.581055,676.004578 
z"/>
<path fill="#015CC1" opacity="1.000000" stroke="none" 
	d="
M535.062256,618.998840 
	C535.762390,613.435852 536.187073,607.814697 537.340149,602.347229 
	C537.662598,600.818420 539.933777,599.288879 541.651306,598.532715 
	C552.972168,593.548889 562.747253,586.865479 568.740356,575.598816 
	C570.691223,580.927307 575.204895,579.313660 578.242310,578.769592 
	C588.940125,576.853577 599.600708,574.554260 610.091614,571.719971 
	C617.386292,569.749207 624.239807,566.131348 631.543152,564.209961 
	C640.594421,561.828674 650.061584,561.028809 658.157349,555.602173 
	C660.942993,553.734985 664.140442,552.482239 667.149719,550.948730 
	C667.197021,551.806091 667.244385,552.663452 666.891479,553.967896 
	C666.546082,555.922546 666.600952,557.430054 666.655823,558.937561 
	C665.212524,569.754028 661.763428,579.844238 655.364014,588.710083 
	C652.215637,582.672485 647.152466,584.676758 643.186707,585.590271 
	C628.699524,588.927246 614.250732,592.512939 599.970337,596.637939 
	C589.814392,599.571472 579.969910,603.573792 569.946838,606.982788 
	C567.311035,607.879211 564.513794,608.289734 561.816040,609.017395 
	C554.970642,610.863708 547.165527,609.772217 541.820923,616.295898 
	C540.474426,617.939453 537.362732,618.136841 535.062256,618.998840 
z"/>
<path fill="#0159B7" opacity="1.000000" stroke="none" 
	d="
M378.711182,665.840332 
	C381.677155,669.364990 381.034912,670.706543 376.656891,671.180542 
	C374.688354,671.393616 372.143188,673.150696 371.232086,674.915649 
	C368.913361,679.407410 365.328522,680.868164 360.727600,682.196167 
	C353.680603,684.230103 346.177460,686.373962 340.359619,690.549561 
	C333.030090,695.810120 324.575165,696.123413 316.733734,698.895020 
	C313.188721,700.148071 309.322479,700.493469 305.600739,701.244629 
	C304.310516,701.505005 302.986938,702.064392 301.729095,701.946777 
	C292.365265,701.071350 282.718109,701.161560 273.750458,698.751343 
	C266.256866,696.737305 259.024231,696.246277 251.275116,696.682983 
	C250.670273,695.786865 249.710098,694.426697 250.037201,693.543091 
	C251.674347,689.120972 253.648834,684.823730 256.092682,680.389648 
	C258.054260,680.848694 259.486328,681.984741 260.791687,681.854126 
	C267.329407,681.200073 273.835541,680.225647 280.349792,679.342285 
	C288.484772,678.239319 296.619690,677.135193 304.748749,675.989685 
	C307.834259,675.554871 311.249847,675.701660 313.915863,674.377319 
	C322.287170,670.218994 330.363373,665.468323 338.579926,660.994934 
	C340.007965,660.217468 341.533325,659.591614 343.065033,659.037476 
	C346.200104,657.903259 349.369995,656.865295 352.525574,655.787720 
	C361.154572,659.066162 369.783600,662.344666 378.711182,665.840332 
z"/>
<path fill="#5CBF4C" opacity="1.000000" stroke="none" 
	d="
M284.610504,354.159363 
	C289.249420,356.583069 293.444305,355.693695 298.105927,354.221893 
	C320.204956,347.244446 342.381683,340.502808 364.617035,333.970947 
	C380.496155,329.306244 396.606262,325.416687 412.435547,320.597351 
	C424.168762,317.025116 435.525452,312.228455 447.219940,308.512451 
	C456.497559,305.564362 466.034271,303.432343 475.452606,300.925323 
	C476.735504,300.583832 478.007202,300.194519 479.269867,299.783691 
	C493.585571,295.125458 507.906891,290.484100 522.206604,285.777130 
	C525.990295,284.531647 529.665405,282.952789 533.458984,281.741791 
	C544.799072,278.121857 556.311096,274.986206 567.479919,270.905701 
	C573.766785,268.608765 579.627075,265.017426 585.400024,261.544647 
	C586.587830,260.830109 586.534119,258.051849 587.113159,255.758270 
	C592.659790,255.854691 598.141113,256.472870 603.634460,256.953094 
	C605.814148,257.143677 608.020569,257.028137 610.556641,257.487793 
	C609.885193,258.968842 609.054199,260.365173 607.828613,261.001343 
	C600.756897,264.671967 593.867493,268.944824 586.408875,271.573944 
	C559.985718,280.887909 533.411865,289.785919 506.787537,298.513092 
	C489.180267,304.284546 471.373199,309.444031 453.684662,314.970703 
	C438.978485,319.565582 424.384308,324.531555 409.612244,328.899475 
	C395.329987,333.122620 380.810913,336.545319 366.531097,340.776093 
	C353.228851,344.717194 340.106232,349.264038 326.901611,353.535217 
	C316.536224,356.888031 306.159454,360.205750 295.801178,363.580353 
	C289.630920,365.590576 284.376892,370.743652 277.117645,369.001862 
	C279.524872,364.119476 281.932098,359.237091 284.610504,354.159363 
z"/>
<path fill="#0167C0" opacity="1.000000" stroke="none" 
	d="
M667.256104,550.529053 
	C664.140442,552.482239 660.942993,553.734985 658.157349,555.602173 
	C650.061584,561.028809 640.594421,561.828674 631.543152,564.209961 
	C624.239807,566.131348 617.386292,569.749207 610.091614,571.719971 
	C599.600708,574.554260 588.940125,576.853577 578.242310,578.769592 
	C575.204895,579.313660 570.691223,580.927307 568.997681,575.375854 
	C570.031860,568.299011 571.075317,561.616089 572.539856,554.412231 
	C580.355286,551.635071 587.727112,549.300781 595.151733,547.149109 
	C600.362061,545.639160 605.569885,543.812561 610.908264,543.107788 
	C630.296143,540.547607 647.313477,533.016907 661.918945,520.021851 
	C665.794495,527.803284 667.593140,536.008240 667.094604,544.718384 
	C666.992371,546.504456 667.263489,548.311768 667.256104,550.529053 
z"/>
<path fill="#56BE4F" opacity="1.000000" stroke="none" 
	d="
M276.900146,369.286713 
	C284.376892,370.743652 289.630920,365.590576 295.801178,363.580353 
	C306.159454,360.205750 316.536224,356.888031 326.901611,353.535217 
	C340.106232,349.264038 353.228851,344.717194 366.531097,340.776093 
	C380.810913,336.545319 395.329987,333.122620 409.612244,328.899475 
	C424.384308,324.531555 438.978485,319.565582 453.684662,314.970703 
	C471.373199,309.444031 489.180267,304.284546 506.787537,298.513092 
	C533.411865,289.785919 559.985718,280.887909 586.408875,271.573944 
	C593.867493,268.944824 600.756897,264.671967 607.828613,261.001343 
	C609.054199,260.365173 609.885193,258.968842 610.946899,257.591156 
	C616.735840,258.158600 622.476196,259.058533 628.609619,260.049377 
	C626.845398,261.989349 624.984985,264.625671 622.485901,265.567627 
	C591.624756,277.199677 561.183472,290.007416 529.101807,298.215881 
	C511.178589,302.801758 493.464966,308.207550 475.661987,313.261810 
	C474.386780,313.623840 472.927582,313.844543 471.936096,314.619751 
	C463.467407,321.240967 452.991486,321.826569 443.189880,324.523773 
	C437.788208,326.010223 432.690002,328.563812 427.349030,330.312866 
	C411.448853,335.519836 395.554138,340.756836 379.549469,345.627960 
	C359.616333,351.694702 339.690582,357.848877 319.536835,363.102997 
	C308.062622,366.094360 297.207764,370.024078 286.931732,375.895111 
	C283.738159,377.719696 279.872833,378.368530 275.793701,379.729584 
	C275.562531,377.624023 275.431824,376.433624 275.015808,375.055847 
	C275.381195,373.102814 276.031921,371.337189 276.900146,369.286713 
z"/>
<path fill="#0145B0" opacity="1.000000" stroke="none" 
	d="
M468.335693,681.302612 
	C471.160553,681.935486 473.590149,682.670227 476.070679,682.944885 
	C478.470093,683.210510 480.921967,683.002441 483.350769,683.002441 
	C483.498810,683.659668 483.646820,684.316833 483.794830,684.974060 
	C480.314697,685.963318 476.849213,687.007996 473.351746,687.931580 
	C462.841949,690.707031 452.305695,693.383911 441.819672,696.245483 
	C440.486420,696.609253 438.840454,697.569519 438.271240,698.716125 
	C433.515472,708.296204 424.764496,710.995361 415.255249,713.045166 
	C405.302002,715.190674 395.519409,718.118958 385.636353,720.602173 
	C379.446991,722.157288 373.239960,723.680298 366.975311,724.873779 
	C365.159576,725.219666 362.992218,724.701843 361.203613,724.014038 
	C356.816345,722.327148 352.822601,722.288635 349.026917,726.021851 
	C335.339783,723.189758 321.849731,720.026672 308.117065,716.570557 
	C309.615448,715.519043 311.448883,713.960327 313.080536,714.148865 
	C318.452148,714.769348 323.729889,716.158569 329.085541,716.979309 
	C332.014069,717.428162 335.318665,718.205139 337.953857,717.329712 
	C353.792389,712.067810 369.546478,706.533691 385.203827,700.752197 
	C393.730042,697.603882 402.325043,694.372864 410.294891,690.076843 
	C416.075409,686.961060 420.880585,682.035767 426.240173,677.503052 
	C440.227325,678.460205 454.095062,679.831726 468.335693,681.302612 
z"/>
<path fill="#0275BF" opacity="1.000000" stroke="none" 
	d="
M661.903442,519.666504 
	C647.313477,533.016907 630.296143,540.547607 610.908264,543.107788 
	C605.569885,543.812561 600.362061,545.639160 595.151733,547.149109 
	C587.727112,549.300781 580.355286,551.635071 572.584595,553.951782 
	C570.771973,546.586182 568.323669,539.767212 561.280090,535.137085 
	C566.967346,531.992126 572.469299,529.025635 578.292664,526.969299 
	C591.141296,522.432129 601.818359,513.409424 615.756653,510.702972 
	C625.854675,508.742157 635.602905,504.908936 646.121155,505.013184 
	C648.269592,505.034485 650.249512,505.014496 650.000732,502.015289 
	C653.963135,507.780609 657.925476,513.545898 661.903442,519.666504 
z"/>
<path fill="#013FB0" opacity="1.000000" stroke="none" 
	d="
M766.499023,627.940186 
	C760.741760,629.381531 755.254944,630.459106 749.943359,632.102844 
	C739.867432,635.220886 730.108398,639.891418 719.827576,641.704041 
	C700.998718,645.023865 681.890198,646.709900 663.449341,652.216980 
	C661.257141,652.871704 658.154602,653.032532 656.349854,651.955200 
	C650.724365,648.597168 646.235596,650.495300 641.716309,653.848633 
	C637.236206,657.172852 636.018311,656.970581 632.210388,652.157227 
	C640.961792,645.656067 650.002380,639.357605 659.749146,632.998047 
	C661.941528,631.580444 663.427734,630.223938 664.913879,628.867371 
	C664.913879,628.867371 664.971619,628.963318 665.302612,628.958984 
	C667.280823,628.267395 669.293152,627.968689 670.511047,626.824463 
	C675.335815,622.291748 680.786987,620.665100 687.289612,621.938354 
	C691.803101,622.822021 696.479614,624.245667 700.927856,623.816711 
	C711.568115,622.790649 722.153931,621.022705 732.689880,619.149963 
	C740.633606,617.737915 748.609924,616.165771 756.302185,613.791565 
	C762.375305,611.917114 771.246277,614.054749 772.914062,604.098755 
	C772.984070,604.910156 773.054077,605.721497 773.124146,606.532837 
	C771.032288,613.632568 768.940430,620.732300 766.499023,627.940186 
z"/>
<path fill="#08A594" opacity="1.000000" stroke="none" 
	d="
M501.706757,437.909912 
	C497.926208,440.934601 494.101532,444.236176 489.736267,446.491486 
	C475.409424,453.893463 460.209473,459.025299 444.516174,462.679016 
	C440.175446,463.689606 435.796234,464.557251 431.406067,465.327148 
	C427.096039,466.082947 423.549408,467.886597 420.988037,471.972595 
	C412.903229,464.575409 408.283264,455.302917 406.319916,444.227478 
	C410.605621,442.670441 414.589447,441.857971 418.451813,440.655487 
	C429.804535,437.121002 441.176117,433.625549 452.409637,429.737152 
	C460.370270,426.981628 467.971741,423.125275 476.016907,420.700684 
	C480.853119,419.243164 486.233429,419.590942 491.369202,419.127411 
	C491.100739,420.399078 490.909454,421.692993 490.551056,422.938782 
	C488.575500,429.805634 489.608215,432.172607 495.987610,435.188782 
	C497.790680,436.041290 499.605560,436.868713 501.706757,437.909912 
z"/>
<path fill="#0265B9" opacity="1.000000" stroke="none" 
	d="
M352.282043,655.520020 
	C349.369995,656.865295 346.200104,657.903259 343.065033,659.037476 
	C341.533325,659.591614 340.007965,660.217468 338.579926,660.994934 
	C330.363373,665.468323 322.287170,670.218994 313.915863,674.377319 
	C311.249847,675.701660 307.834259,675.554871 304.748749,675.989685 
	C296.619690,677.135193 288.484772,678.239319 280.349792,679.342285 
	C273.835541,680.225647 267.329407,681.200073 260.791687,681.854126 
	C259.486328,681.984741 258.054260,680.848694 256.345520,680.145264 
	C260.707428,668.887939 265.404480,657.781921 270.509186,646.791870 
	C272.377899,647.902100 273.917877,649.839111 275.286011,649.724609 
	C280.655090,649.274963 286.355377,649.111694 291.215393,647.105103 
	C298.614014,644.050110 305.472992,639.646484 312.392975,635.532654 
	C313.158752,635.077393 312.827454,632.776733 313.004944,631.331909 
	C326.016144,639.305420 339.027344,647.278931 352.282043,655.520020 
z"/>
<path fill="#0195A9" opacity="1.000000" stroke="none" 
	d="
M448.121887,492.323364 
	C452.359650,485.777618 458.971191,483.666473 466.070282,481.935364 
	C479.356812,478.695465 493.248474,477.843170 505.865997,471.921631 
	C516.498169,466.931793 527.003113,461.601410 537.911804,457.303711 
	C542.452026,455.514984 547.901978,456.077881 552.921570,455.439789 
	C554.592407,455.227448 556.211060,454.604645 558.037842,453.820374 
	C565.339844,455.668274 572.457642,457.865326 579.830566,460.646301 
	C577.491150,463.943115 575.388855,467.880615 572.216431,469.155823 
	C558.850769,474.528381 545.230225,479.297363 531.576904,483.914307 
	C520.790344,487.561859 509.839203,490.730255 498.925079,493.990601 
	C489.416809,496.830933 479.858063,499.502319 470.321625,502.248352 
	C462.991150,499.032959 455.660675,495.817535 448.121887,492.323364 
z"/>
<path fill="#025CC8" opacity="1.000000" stroke="none" 
	d="
M696.240479,579.038513 
	C699.498047,567.175659 699.891235,555.110657 699.208618,542.505371 
	C702.148376,541.842224 704.886292,542.169556 707.148926,541.283325 
	C714.621094,538.356506 722.146912,535.413696 729.208862,531.646179 
	C733.941589,529.121277 737.922546,525.187256 742.239929,521.883789 
	C754.082092,531.682312 762.856445,543.672791 767.884949,558.709229 
	C766.743835,560.010254 765.982971,561.135620 764.977417,561.432556 
	C755.040527,564.366943 745.087891,567.254944 735.090210,569.974365 
	C724.955444,572.731018 714.781799,575.350830 704.587585,577.878967 
	C701.876160,578.551392 699.026611,578.667175 696.240479,579.038513 
z"/>
<path fill="#027EBA" opacity="1.000000" stroke="none" 
	d="
M649.898132,501.693359 
	C650.249512,505.014496 648.269592,505.034485 646.121155,505.013184 
	C635.602905,504.908936 625.854675,508.742157 615.756653,510.702972 
	C601.818359,513.409424 591.141296,522.432129 578.292664,526.969299 
	C572.469299,529.025635 566.967346,531.992126 561.128967,534.834473 
	C551.984558,528.673340 541.920898,524.697266 531.256775,521.240784 
	C533.916687,518.445618 536.376038,515.025635 539.476135,514.284058 
	C553.328369,510.970428 566.611511,506.516296 579.618408,500.528961 
	C593.188354,494.282501 607.625916,489.932159 621.611023,484.562225 
	C623.329773,483.902252 624.597229,482.066681 626.073792,480.775909 
	C633.981018,487.641083 641.888306,494.506287 649.898132,501.693359 
z"/>
<path fill="#3EB862" opacity="1.000000" stroke="none" 
	d="
M269.338745,396.213989 
	C272.760284,395.061157 275.997345,394.447418 279.081543,393.388580 
	C288.453217,390.171143 297.717072,386.636078 307.112213,383.491394 
	C323.740814,377.925415 340.404785,372.460571 357.111450,367.133667 
	C371.444061,362.563751 385.848114,358.216217 400.249542,353.866455 
	C401.544891,353.475220 403.053253,353.789307 404.807922,353.923279 
	C396.333679,362.621063 387.514282,371.171448 377.985107,379.870544 
	C370.240417,381.811890 363.062164,383.178131 356.199707,385.484100 
	C340.979614,390.598633 325.913483,396.171997 310.793396,401.582977 
	C301.303925,404.978912 291.880524,408.568726 282.327362,411.773102 
	C278.000275,413.224457 273.429810,413.950348 268.969788,415.005402 
	C269.007965,408.853455 269.046143,402.701508 269.338745,396.213989 
z"/>
<path fill="#31B46A" opacity="1.000000" stroke="none" 
	d="
M699.010071,272.027740 
	C713.035706,275.981934 727.061279,279.936157 740.968262,284.601501 
	C738.211243,286.546509 735.681152,288.157349 732.916443,288.951477 
	C718.043213,293.223755 703.102173,297.259247 688.203186,301.442841 
	C675.807312,304.923523 663.456970,308.567108 651.048645,312.002319 
	C643.023865,314.223999 634.931091,316.200317 626.868774,318.286560 
	C610.836304,315.601654 594.803894,312.916718 578.671143,309.812073 
	C582.500793,308.928406 586.445251,308.562286 590.357361,307.979218 
	C597.532043,306.909882 604.766235,306.063568 611.832336,304.483734 
	C621.668762,302.284454 631.257935,298.837677 641.159241,297.101135 
	C659.963562,293.803070 677.556213,287.250336 694.669983,279.120392 
	C697.577393,277.739166 699.474731,275.560486 699.010071,272.027740 
z"/>
<path fill="#024CB9" opacity="1.000000" stroke="none" 
	d="
M648.109497,601.120178 
	C627.845886,627.678833 599.471924,640.833130 568.205078,648.770508 
	C555.748108,651.932922 542.919373,653.630981 529.253845,656.183655 
	C530.568481,647.731079 531.656555,640.735046 533.156128,633.561768 
	C534.628113,633.526733 535.861572,634.095337 536.722473,633.745911 
	C546.066101,629.953186 555.179199,626.310730 565.807861,626.639343 
	C571.723633,626.822266 577.799622,623.527039 583.713806,621.533447 
	C588.642517,619.871948 593.304504,617.228210 598.326965,616.078552 
	C606.846680,614.128540 615.513855,613.085205 623.178040,608.227966 
	C625.547485,606.726257 628.827759,606.273132 631.735962,606.101746 
	C636.031189,605.848694 640.290833,606.418518 643.521423,602.433533 
	C644.342163,601.421143 646.542847,601.527710 648.109497,601.120178 
z"/>
<path fill="#0169BB" opacity="1.000000" stroke="none" 
	d="
M361.917572,633.192505 
	C361.917572,633.192505 361.433258,633.076294 361.058533,632.768188 
	C360.376587,632.334412 360.069366,632.208740 359.762146,632.083130 
	C350.216339,626.715942 340.670502,621.348755 331.356567,615.570190 
	C338.481262,612.033142 345.359680,612.939148 352.401703,614.813538 
	C355.853180,615.732239 359.665283,616.295837 363.148895,615.817139 
	C366.748322,615.322632 370.103241,613.233398 373.644257,612.085938 
	C378.805298,610.413391 384.059845,609.031372 389.233856,607.396667 
	C399.395935,604.186035 404.018768,596.954712 404.132721,586.535095 
	C418.213654,591.879211 432.294617,597.223389 446.682739,603.148682 
	C445.398224,605.427734 444.004791,607.397949 442.156586,608.743408 
	C440.456818,609.980774 438.158905,610.360107 436.313904,611.440857 
	C430.047638,615.111084 424.170563,619.611816 417.585846,622.537048 
	C404.696594,628.263245 392.022217,635.264648 376.738159,630.278687 
	C372.094208,628.763733 366.254211,629.167053 361.917572,633.192505 
z"/>
<path fill="#1DAD7E" opacity="1.000000" stroke="none" 
	d="
M682.711487,340.139465 
	C673.580750,336.026154 664.450073,331.912811 655.270996,327.238464 
	C657.561890,325.719269 659.842834,324.570740 662.249634,323.833344 
	C679.780640,318.462036 697.235474,312.802643 714.914917,307.967224 
	C731.310913,303.482758 747.968079,299.957550 764.466980,295.836670 
	C765.839844,295.493835 766.882385,293.828766 768.078430,292.777985 
	C770.386902,293.486847 772.695374,294.195740 775.296692,294.994537 
	C772.010803,301.900726 768.986267,308.257782 765.289673,314.841400 
	C762.500610,315.307983 760.289612,315.236420 758.282837,315.841766 
	C749.423950,318.513763 740.714600,321.721130 731.782410,324.101654 
	C716.181885,328.259460 702.003906,337.069397 685.474548,338.193665 
	C684.513916,338.259003 683.630737,339.464569 682.711487,340.139465 
z"/>
<path fill="#0246B9" opacity="1.000000" stroke="none" 
	d="
M773.376709,606.169739 
	C773.054077,605.721497 772.984070,604.910156 772.914062,604.098755 
	C771.246277,614.054749 762.375305,611.917114 756.302185,613.791565 
	C748.609924,616.165771 740.633606,617.737915 732.689880,619.149963 
	C722.153931,621.022705 711.568115,622.790649 700.927856,623.816711 
	C696.479614,624.245667 691.803101,622.822021 687.289612,621.938354 
	C680.786987,620.665100 675.335815,622.291748 670.511047,626.824463 
	C669.293152,627.968689 667.280823,628.267395 665.253418,628.932251 
	C671.333862,620.353088 677.794495,611.796204 684.971924,603.116211 
	C693.282593,602.095886 701.048828,601.917786 708.434143,600.149170 
	C723.063782,596.645569 737.821289,594.351868 752.768799,592.951965 
	C758.427124,592.422180 764.028870,591.110352 767.690369,586.251282 
	C769.829102,583.412964 771.307312,580.076904 773.082642,576.964722 
	C773.264832,586.578674 773.447021,596.192688 773.376709,606.169739 
z"/>
<path fill="#0053BD" opacity="1.000000" stroke="none" 
	d="
M648.084351,601.100098 
	C646.542847,601.527710 644.342163,601.421143 643.521423,602.433533 
	C640.290833,606.418518 636.031189,605.848694 631.735962,606.101746 
	C628.827759,606.273132 625.547485,606.726257 623.178040,608.227966 
	C615.513855,613.085205 606.846680,614.128540 598.326965,616.078552 
	C593.304504,617.228210 588.642517,619.871948 583.713806,621.533447 
	C577.799622,623.527039 571.723633,626.822266 565.807861,626.639343 
	C555.179199,626.310730 546.066101,629.953186 536.722473,633.745911 
	C535.861572,634.095337 534.628113,633.526733 533.304932,633.196533 
	C533.667358,628.620422 534.292419,624.232178 534.989868,619.421387 
	C537.362732,618.136841 540.474426,617.939453 541.820923,616.295898 
	C547.165527,609.772217 554.970642,610.863708 561.816040,609.017395 
	C564.513794,608.289734 567.311035,607.879211 569.946838,606.982788 
	C579.969910,603.573792 589.814392,599.571472 599.970337,596.637939 
	C614.250732,592.512939 628.699524,588.927246 643.186707,585.590271 
	C647.152466,584.676758 652.215637,582.672485 655.018188,588.794678 
	C653.697205,592.015442 652.319092,594.849487 650.369263,597.985474 
	C649.528625,598.842957 649.259644,599.398438 648.990662,599.953918 
	C648.990662,599.953918 649.008240,599.999695 648.769897,600.131958 
	C648.378662,600.556885 648.225830,600.849487 648.072937,601.142151 
	C648.072937,601.142151 648.059265,601.080017 648.084351,601.100098 
z"/>
<path fill="#24B077" opacity="1.000000" stroke="none" 
	d="
M365.659882,403.148834 
	C364.474792,411.796539 363.289734,420.444275 361.613098,429.545929 
	C351.774323,432.035736 342.193359,433.348267 333.134216,436.275696 
	C319.275055,440.754211 305.772400,446.337463 292.125946,451.471832 
	C288.040894,453.008881 283.981079,454.612976 279.909698,456.186340 
	C277.198486,449.418793 274.487244,442.651276 272.134674,435.337585 
	C289.283905,428.713104 306.032196,422.514465 322.881104,416.602417 
	C332.697937,413.157837 342.664978,410.138000 352.586273,406.995941 
	C356.915985,405.624664 361.300323,404.425903 365.659882,403.148834 
z"/>
<path fill="#0284B5" opacity="1.000000" stroke="none" 
	d="
M625.885559,480.500488 
	C624.597229,482.066681 623.329773,483.902252 621.611023,484.562225 
	C607.625916,489.932159 593.188354,494.282501 579.618408,500.528961 
	C566.611511,506.516296 553.328369,510.970428 539.476135,514.284058 
	C536.376038,515.025635 533.916687,518.445618 531.013550,520.963196 
	C529.492554,520.920410 528.120422,520.546997 526.041870,520.145996 
	C522.659912,520.946655 519.959534,522.510559 517.315063,522.421204 
	C513.831299,522.303345 510.294983,521.151672 506.964722,519.940125 
	C504.519104,519.050476 502.368195,517.350769 500.085938,516.012024 
	C499.562500,514.831177 499.039062,513.650391 498.410980,511.923309 
	C504.007538,505.061157 512.320923,505.259827 519.603943,503.095032 
	C532.864014,499.153687 546.431519,496.225342 559.627441,492.096497 
	C569.657410,488.958252 579.653320,485.287354 588.987183,480.525879 
	C593.697266,478.123047 599.097351,474.421631 599.128357,467.506470 
	C607.984680,471.746002 616.841003,475.985535 625.885559,480.500488 
z"/>
<path fill="#14AB87" opacity="1.000000" stroke="none" 
	d="
M491.541077,418.777008 
	C486.233429,419.590942 480.853119,419.243164 476.016907,420.700684 
	C467.971741,423.125275 460.370270,426.981628 452.409637,429.737152 
	C441.176117,433.625549 429.804535,437.121002 418.451813,440.655487 
	C414.589447,441.857971 410.605621,442.670441 406.356720,443.829834 
	C403.493164,434.492798 404.495178,425.100494 407.496063,415.381226 
	C410.667358,415.337463 413.427734,416.375977 415.873383,415.875671 
	C427.660889,413.464447 439.495667,411.106812 451.063171,407.842346 
	C465.836945,403.673065 480.370636,398.653076 495.007812,393.999756 
	C493.909515,402.142059 492.811249,410.284332 491.541077,418.777008 
z"/>
<path fill="#024FC3" opacity="1.000000" stroke="none" 
	d="
M773.108887,576.550659 
	C771.307312,580.076904 769.829102,583.412964 767.690369,586.251282 
	C764.028870,591.110352 758.427124,592.422180 752.768799,592.951965 
	C737.821289,594.351868 723.063782,596.645569 708.434143,600.149170 
	C701.048828,601.917786 693.282593,602.095886 685.279846,602.970276 
	C688.552246,595.201660 692.233459,587.455933 696.077576,579.374390 
	C699.026611,578.667175 701.876160,578.551392 704.587585,577.878967 
	C714.781799,575.350830 724.955444,572.731018 735.090210,569.974365 
	C745.087891,567.254944 755.040527,564.366943 764.977417,561.432556 
	C765.982971,561.135620 766.743835,560.010254 767.927917,559.083740 
	C769.870117,564.644348 771.502625,570.390503 773.108887,576.550659 
z"/>
<path fill="#31B46A" opacity="1.000000" stroke="none" 
	d="
M365.842468,402.880310 
	C361.300323,404.425903 356.915985,405.624664 352.586273,406.995941 
	C342.664978,410.138000 332.697937,413.157837 322.881104,416.602417 
	C306.032196,422.514465 289.283905,428.713104 272.138794,434.939606 
	C270.792358,428.693176 269.800446,422.298615 268.889160,415.454712 
	C273.429810,413.950348 278.000275,413.224457 282.327362,411.773102 
	C291.880524,408.568726 301.303925,404.978912 310.793396,401.582977 
	C325.913483,396.171997 340.979614,390.598633 356.199707,385.484100 
	C363.062164,383.178131 370.240417,381.811890 377.694946,380.029419 
	C374.084686,387.563660 370.054871,395.087708 365.842468,402.880310 
z"/>
<path fill="#14AB87" opacity="1.000000" stroke="none" 
	d="
M279.924500,456.539368 
	C283.981079,454.612976 288.040894,453.008881 292.125946,451.471832 
	C305.772400,446.337463 319.275055,440.754211 333.134216,436.275696 
	C342.193359,433.348267 351.774323,432.035736 361.531128,429.994934 
	C363.462616,437.691620 364.984589,445.393250 366.203979,453.404175 
	C363.981445,453.455566 362.001740,452.781555 360.156830,453.046509 
	C357.921295,453.367523 355.802887,454.491333 353.628235,455.251770 
	C342.409393,459.174835 331.115265,462.897461 319.995392,467.083130 
	C312.911560,469.749512 306.032074,472.988647 299.196655,476.254974 
	C298.087402,476.785065 297.685364,478.795044 296.956390,480.120972 
	C291.284027,472.378113 285.611664,464.635223 279.924500,456.539368 
z"/>
<path fill="#018CB0" opacity="1.000000" stroke="none" 
	d="
M598.864990,467.293152 
	C599.097351,474.421631 593.697266,478.123047 588.987183,480.525879 
	C579.653320,485.287354 569.657410,488.958252 559.627441,492.096497 
	C546.431519,496.225342 532.864014,499.153687 519.603943,503.095032 
	C512.320923,505.259827 504.007538,505.061157 498.154388,511.684021 
	C488.939087,508.943359 479.875702,505.895782 470.566986,502.548279 
	C479.858063,499.502319 489.416809,496.830933 498.925079,493.990601 
	C509.839203,490.730255 520.790344,487.561859 531.576904,483.914307 
	C545.230225,479.297363 558.850769,474.528381 572.216431,469.155823 
	C575.388855,467.880615 577.491150,463.943115 580.130737,460.822510 
	C586.317749,462.636536 592.459656,464.858185 598.864990,467.293152 
z"/>
<path fill="#0BA790" opacity="1.000000" stroke="none" 
	d="
M297.075623,480.429840 
	C297.685364,478.795044 298.087402,476.785065 299.196655,476.254974 
	C306.032074,472.988647 312.911560,469.749512 319.995392,467.083130 
	C331.115265,462.897461 342.409393,459.174835 353.628235,455.251770 
	C355.802887,454.491333 357.921295,453.367523 360.156830,453.046509 
	C362.001740,452.781555 363.981445,453.455566 366.278595,453.813049 
	C370.159607,461.338043 373.663483,468.763489 376.852478,476.563416 
	C370.919922,478.501953 365.151886,479.666412 359.715393,481.711975 
	C347.867096,486.170044 336.108459,490.896790 324.523041,495.990997 
	C322.747864,496.771515 322.090240,500.093536 320.915771,502.240143 
	C313.008820,495.072998 305.101837,487.905853 297.075623,480.429840 
z"/>
<path fill="#04A29A" opacity="1.000000" stroke="none" 
	d="
M627.789429,415.098145 
	C617.058228,409.827515 606.326965,404.556885 595.309509,398.696167 
	C596.485596,397.070587 597.836670,395.376923 599.428650,395.107697 
	C608.856934,393.513214 618.431274,392.689789 627.786438,390.775726 
	C643.771606,387.505188 658.474548,380.556732 673.292053,373.960938 
	C676.928650,372.342163 681.105652,371.937531 685.034241,370.974670 
	C685.034241,370.974670 684.998352,370.998962 685.104614,371.206055 
	C685.398376,371.697052 685.653198,371.893829 685.975281,372.003479 
	C685.975281,372.003479 686.005737,371.999939 686.090576,372.220703 
	C686.342224,372.702240 686.566162,372.897339 686.847351,373.026825 
	C692.664795,379.199219 692.670166,379.201630 689.421570,386.472626 
	C687.343384,391.123993 685.246582,395.767029 682.507812,400.705750 
	C667.909180,401.608032 654.329529,404.250977 640.922607,408.080383 
	C635.965210,409.496338 630.878784,410.331940 627.789429,415.098145 
z"/>
<path fill="#0274BA" opacity="1.000000" stroke="none" 
	d="
M403.911346,586.299500 
	C404.018768,596.954712 399.395935,604.186035 389.233856,607.396667 
	C384.059845,609.031372 378.805298,610.413391 373.644257,612.085938 
	C370.103241,613.233398 366.748322,615.322632 363.148895,615.817139 
	C359.665283,616.295837 355.853180,615.732239 352.401703,614.813538 
	C345.359680,612.939148 338.481262,612.033142 331.187073,615.285889 
	C330.785645,615.413025 330.816071,615.375977 330.738953,615.048035 
	C330.311707,614.520752 329.961578,614.321411 329.611450,614.122131 
	C329.307678,612.299866 328.252686,610.184570 328.829620,608.705933 
	C331.384491,602.158264 334.408081,595.793457 337.911163,589.216064 
	C341.298370,589.443848 344.029449,590.024048 346.777100,590.117737 
	C348.521973,590.177185 350.294556,589.528687 352.049316,589.171265 
	C356.895172,588.184326 362.193542,588.100830 366.476349,585.974792 
	C373.016876,582.727844 378.855072,578.066162 384.991455,574.005127 
	C391.224274,578.024719 397.457123,582.044312 403.911346,586.299500 
z"/>
<path fill="#015EB9" opacity="1.000000" stroke="none" 
	d="
M362.105591,633.494751 
	C366.254211,629.167053 372.094208,628.763733 376.738159,630.278687 
	C392.022217,635.264648 404.696594,628.263245 417.585846,622.537048 
	C424.170563,619.611816 430.047638,615.111084 436.313904,611.440857 
	C438.158905,610.360107 440.456818,609.980774 442.156586,608.743408 
	C444.004791,607.397949 445.398224,605.427734 446.994202,603.354675 
	C452.201416,603.834839 457.404419,604.690308 462.895721,605.593140 
	C461.869293,612.755493 460.905914,619.477966 459.477509,626.655579 
	C456.840973,628.301819 454.793884,630.091614 452.475006,630.573730 
	C445.011383,632.125305 439.258270,636.041992 433.927643,641.377319 
	C427.799438,647.510864 420.485016,650.301270 411.867645,645.893616 
	C409.989960,644.933228 407.736115,644.052124 405.732880,644.197937 
	C404.091614,644.317322 402.565491,646.018066 400.988342,647.017822 
	C400.533936,647.006287 400.079559,646.994751 399.231262,646.521545 
	C396.899353,645.683350 394.961395,645.306885 393.023407,644.930359 
	C384.450195,641.896057 375.872650,638.873901 367.307465,635.817078 
	C365.611847,635.211975 363.963654,634.473816 362.105591,633.494751 
z"/>
<path fill="#27B074" opacity="1.000000" stroke="none" 
	d="
M767.822876,292.534302 
	C766.882385,293.828766 765.839844,295.493835 764.466980,295.836670 
	C747.968079,299.957550 731.310913,303.482758 714.914917,307.967224 
	C697.235474,312.802643 679.780640,318.462036 662.249634,323.833344 
	C659.842834,324.570740 657.561890,325.719269 655.059814,326.943207 
	C645.720093,324.425995 636.543335,321.643005 627.117676,318.573303 
	C634.931091,316.200317 643.023865,314.223999 651.048645,312.002319 
	C663.456970,308.567108 675.807312,304.923523 688.203186,301.442841 
	C703.102173,297.259247 718.043213,293.223755 732.916443,288.951477 
	C735.681152,288.157349 738.211243,286.546509 741.003662,284.961548 
	C742.906616,284.763000 744.757324,284.599030 746.387024,285.122742 
	C753.482178,287.402802 760.513062,289.883057 767.822876,292.534302 
z"/>
<path fill="#0BA790" opacity="1.000000" stroke="none" 
	d="
M684.897461,370.665253 
	C681.105652,371.937531 676.928650,372.342163 673.292053,373.960938 
	C658.474548,380.556732 643.771606,387.505188 627.786438,390.775726 
	C618.431274,392.689789 608.856934,393.513214 599.428650,395.107697 
	C597.836670,395.376923 596.485596,397.070587 595.011719,398.484009 
	C586.482483,396.318817 577.964844,393.775726 569.305603,391.190399 
	C569.568115,387.963928 569.833557,384.700745 570.749146,381.296448 
	C574.609863,381.770020 577.889709,383.141693 581.017700,382.855286 
	C589.851440,382.046387 598.806458,381.298767 607.379456,379.176727 
	C623.540771,375.176300 639.516602,370.390900 655.458740,365.565430 
	C659.552673,364.326202 663.233032,361.720581 667.103394,359.742676 
	C672.989136,363.280396 678.874939,366.818085 684.897461,370.665253 
z"/>
<path fill="#3EB862" opacity="1.000000" stroke="none" 
	d="
M698.608948,271.918488 
	C699.474731,275.560486 697.577393,277.739166 694.669983,279.120392 
	C677.556213,287.250336 659.963562,293.803070 641.159241,297.101135 
	C631.257935,298.837677 621.668762,302.284454 611.832336,304.483734 
	C604.766235,306.063568 597.532043,306.909882 590.357361,307.979218 
	C586.445251,308.562286 582.500793,308.928406 578.292908,309.669250 
	C571.638428,309.639313 565.262024,309.332458 558.509888,308.590027 
	C562.117859,306.259827 565.928772,303.749207 570.114563,302.575989 
	C589.382507,297.175446 608.767761,292.195160 628.085815,286.971130 
	C642.433350,283.091278 656.829590,279.347473 671.005310,274.908112 
	C674.418457,273.839203 679.445068,273.184296 680.000671,267.789246 
	C684.786194,269.050568 689.559753,270.360352 694.365356,271.539795 
	C695.594238,271.841370 696.924255,271.730560 698.608948,271.918488 
z"/>
<path fill="#0FA98B" opacity="1.000000" stroke="none" 
	d="
M666.886963,359.477264 
	C663.233032,361.720581 659.552673,364.326202 655.458740,365.565430 
	C639.516602,370.390900 623.540771,375.176300 607.379456,379.176727 
	C598.806458,381.298767 589.851440,382.046387 581.017700,382.855286 
	C577.889709,383.141693 574.609863,381.770020 571.019714,380.995392 
	C571.432495,375.163940 572.224915,369.492401 573.517944,363.425293 
	C576.240356,363.641937 578.570740,365.027191 580.665283,364.733093 
	C589.937622,363.431091 599.250732,362.100464 608.344299,359.924316 
	C620.324036,357.057556 632.112000,353.389404 643.982422,350.065796 
	C651.545166,353.114502 659.107849,356.163177 666.886963,359.477264 
z"/>
<path fill="#0FA98B" opacity="1.000000" stroke="none" 
	d="
M682.916870,340.419250 
	C683.630737,339.464569 684.513916,338.259003 685.474548,338.193665 
	C702.003906,337.069397 716.181885,328.259460 731.782410,324.101654 
	C740.714600,321.721130 749.423950,318.513763 758.282837,315.841766 
	C760.289612,315.236420 762.500610,315.307983 765.082825,315.101471 
	C761.391357,323.896729 757.234680,332.658478 752.457031,341.710052 
	C749.684998,342.598450 747.469727,343.030151 745.395630,343.828613 
	C740.339233,345.775238 735.498291,348.495117 730.293457,349.788696 
	C723.635315,351.443542 716.680115,351.871918 709.914734,353.154633 
	C708.660339,353.392487 707.698425,355.172974 706.601562,356.241486 
	C698.775146,351.060669 690.948669,345.879852 682.916870,340.419250 
z"/>
<path fill="#49BB59" opacity="1.000000" stroke="none" 
	d="
M679.672729,267.598602 
	C679.445068,273.184296 674.418457,273.839203 671.005310,274.908112 
	C656.829590,279.347473 642.433350,283.091278 628.085815,286.971130 
	C608.767761,292.195160 589.382507,297.175446 570.114563,302.575989 
	C565.928772,303.749207 562.117859,306.259827 558.067810,308.487671 
	C545.307434,309.264343 532.613586,309.707825 519.453552,310.095184 
	C526.817322,305.818604 535.150085,303.330841 543.944153,301.875671 
	C549.596741,300.940338 555.080750,298.894348 560.583862,297.166443 
	C572.239014,293.506927 583.854309,289.720490 595.492310,286.005981 
	C599.420166,284.752319 603.742432,284.214691 607.236511,282.216766 
	C618.542786,275.751740 631.008972,274.502136 643.505005,272.934814 
	C649.221924,272.217834 654.876953,270.905853 660.502625,269.613953 
	C662.662537,269.117950 664.725647,267.961700 663.056641,264.702026 
	C668.449951,265.386292 673.897339,266.397125 679.672729,267.598602 
z"/>
<path fill="#04A29A" opacity="1.000000" stroke="none" 
	d="
M321.091522,502.520050 
	C322.090240,500.093536 322.747864,496.771515 324.523041,495.990997 
	C336.108459,490.896790 347.867096,486.170044 359.715393,481.711975 
	C365.151886,479.666412 370.919922,478.501953 376.972168,476.902161 
	C381.909698,482.011230 386.412628,487.156158 390.748505,492.748505 
	C379.405334,498.749664 368.250458,504.346771 357.037628,509.825226 
	C354.375549,511.125854 351.368774,511.765472 348.814972,513.224548 
	C347.515442,513.966980 346.869873,515.854187 345.928650,517.223877 
	C337.708191,512.415894 329.487732,507.607941 321.091522,502.520050 
z"/>
<path fill="#1DAD7E" opacity="1.000000" stroke="none" 
	d="
M495.155518,393.609100 
	C480.370636,398.653076 465.836945,403.673065 451.063171,407.842346 
	C439.495667,411.106812 427.660889,413.464447 415.873383,415.875671 
	C413.427734,416.375977 410.667358,415.337463 407.642944,415.006897 
	C409.342377,409.621857 411.450897,404.237976 414.286865,398.831665 
	C421.662109,398.588928 428.598206,399.494659 434.889832,397.883575 
	C444.245758,395.487854 453.000122,390.831696 462.277435,388.017578 
	C473.745209,384.539001 485.486298,381.961395 497.109283,378.994507 
	C496.507263,383.735809 495.905212,388.477142 495.155518,393.609100 
z"/>
<path fill="#029EA0" opacity="1.000000" stroke="none" 
	d="
M627.972778,415.386169 
	C630.878784,410.331940 635.965210,409.496338 640.922607,408.080383 
	C654.329529,404.250977 667.909180,401.608032 682.282959,400.995667 
	C675.677917,416.528839 668.647461,432.063995 661.205078,448.509338 
	C652.792175,434.221527 640.948120,424.453430 627.972778,415.386169 
z"/>
<path fill="#1DAD7E" opacity="1.000000" stroke="none" 
	d="
M643.690552,349.851990 
	C632.112000,353.389404 620.324036,357.057556 608.344299,359.924316 
	C599.250732,362.100464 589.937622,363.431091 580.665283,364.733093 
	C578.570740,365.027191 576.240356,363.641937 573.644714,363.022339 
	C574.578735,354.202271 575.886597,345.389587 577.265503,336.098541 
	C600.109985,337.909271 622.076843,342.140778 643.690552,349.851990 
z"/>
<path fill="#0167C0" opacity="1.000000" stroke="none" 
	d="
M742.097717,521.572632 
	C737.922546,525.187256 733.941589,529.121277 729.208862,531.646179 
	C722.146912,535.413696 714.621094,538.356506 707.148926,541.283325 
	C704.886292,542.169556 702.148376,541.842224 699.244812,542.037231 
	C696.214600,534.034851 693.567627,526.065918 690.970642,517.353882 
	C693.472717,515.521118 695.833069,514.081970 698.394653,513.408936 
	C705.378540,511.573975 710.521973,507.769226 713.178467,500.914368 
	C722.770813,507.696747 732.363159,514.479126 742.097717,521.572632 
z"/>
<path fill="#0195A9" opacity="1.000000" stroke="none" 
	d="
M346.116943,517.519043 
	C346.869873,515.854187 347.515442,513.966980 348.814972,513.224548 
	C351.368774,511.765472 354.375549,511.125854 357.037628,509.825226 
	C368.250458,504.346771 379.405334,498.749664 390.908569,493.048004 
	C398.769653,498.374176 406.303650,503.848328 413.678284,509.761536 
	C412.157867,510.806641 410.798889,511.417389 409.435425,512.017883 
	C399.335632,516.466064 388.319519,518.793396 379.112793,525.350830 
	C377.181671,526.726257 374.640167,527.244812 372.379913,528.158203 
	C363.688324,524.710266 354.996735,521.262268 346.116943,517.519043 
z"/>
<path fill="#0169BB" opacity="1.000000" stroke="none" 
	d="
M488.033752,598.003418 
	C490.272827,582.585693 492.511871,567.167908 495.162689,551.605652 
	C498.422729,556.274109 500.851440,556.977783 507.181122,555.106018 
	C511.715057,553.765259 516.312988,552.563416 520.012756,557.032776 
	C518.686707,566.907471 517.388306,576.786072 516.019470,586.654846 
	C515.545044,590.075378 514.895935,593.471802 513.630676,597.021545 
	C506.297485,595.209961 499.945923,594.189758 494.112213,599.684570 
	C492.251892,601.436768 489.211578,601.648010 488.033752,598.003418 
z"/>
<path fill="#047DB6" opacity="1.000000" stroke="none" 
	d="
M432.088928,519.729614 
	C445.520599,525.774658 458.952301,531.819702 473.030426,538.155640 
	C472.507324,542.227966 471.903076,546.932312 471.109955,553.106750 
	C449.238251,548.459656 427.936279,543.933655 406.540039,538.922241 
	C407.342896,538.048096 408.286835,537.741028 409.129669,537.257568 
	C414.887787,533.954956 420.625244,530.616211 426.368134,527.287048 
	C429.331787,525.568970 432.766815,524.205322 432.088928,519.729614 
z"/>
<path fill="#047DB6" opacity="1.000000" stroke="none" 
	d="
M384.837402,573.709106 
	C378.855072,578.066162 373.016876,582.727844 366.476349,585.974792 
	C362.193542,588.100830 356.895172,588.184326 352.049316,589.171265 
	C350.294556,589.528687 348.521973,590.177185 346.777100,590.117737 
	C344.029449,590.024048 341.298370,589.443848 338.179138,588.996399 
	C344.322083,574.064026 350.846130,559.204834 356.919495,545.372070 
	C366.101624,554.645874 375.392487,564.029541 384.837402,573.709106 
z"/>
<path fill="#27B074" opacity="1.000000" stroke="none" 
	d="
M497.307007,378.656555 
	C485.486298,381.961395 473.745209,384.539001 462.277435,388.017578 
	C453.000122,390.831696 444.245758,395.487854 434.889832,397.883575 
	C428.598206,399.494659 421.662109,398.588928 414.544800,398.626495 
	C417.063934,393.813568 420.052643,389.183380 423.489899,384.740540 
	C426.204926,388.191223 429.024078,387.021362 431.941040,386.049011 
	C448.738953,380.449646 465.551544,374.894043 482.372986,369.365631 
	C488.126312,367.474792 493.919556,365.705444 499.694580,363.880615 
	C498.964630,368.693298 498.234711,373.505951 497.307007,378.656555 
z"/>
<path fill="#0274BA" opacity="1.000000" stroke="none" 
	d="
M312.787781,631.059814 
	C312.827454,632.776733 313.158752,635.077393 312.392975,635.532654 
	C305.472992,639.646484 298.614014,644.050110 291.215393,647.105103 
	C286.355377,649.111694 280.655090,649.274963 275.286011,649.724609 
	C273.917877,649.839111 272.377899,647.902100 270.744843,646.500000 
	C276.034637,633.072266 281.496460,620.052246 287.035858,606.847290 
	C295.742432,615.010254 304.156525,622.898926 312.787781,631.059814 
z"/>
<path fill="#0275BF" opacity="1.000000" stroke="none" 
	d="
M712.993774,500.625488 
	C710.521973,507.769226 705.378540,511.573975 698.394653,513.408936 
	C695.833069,514.081970 693.472717,515.521118 690.939209,517.000854 
	C683.560974,504.819946 675.633484,492.718597 663.724121,483.937042 
	C657.204102,479.129425 650.383240,474.729858 643.758667,469.912292 
	C667.965637,477.234802 691.023499,487.310394 712.993774,500.625488 
z"/>
<path fill="#018CB0" opacity="1.000000" stroke="none" 
	d="
M431.874817,519.473389 
	C432.766815,524.205322 429.331787,525.568970 426.368134,527.287048 
	C420.625244,530.616211 414.887787,533.954956 409.129669,537.257568 
	C408.286835,537.741028 407.342896,538.048096 406.230530,538.695984 
	C394.977112,535.547302 383.938873,532.139404 372.640259,528.444885 
	C374.640167,527.244812 377.181671,526.726257 379.112793,525.350830 
	C388.319519,518.793396 399.335632,516.466064 409.435425,512.017883 
	C410.798889,511.417389 412.157867,510.806641 413.860901,510.051392 
	C420.022125,513.007202 425.841431,516.112183 431.874817,519.473389 
z"/>
<path fill="#047DB6" opacity="1.000000" stroke="none" 
	d="
M520.202576,556.688965 
	C516.312988,552.563416 511.715057,553.765259 507.181122,555.106018 
	C500.851440,556.977783 498.422729,556.274109 495.312012,551.237305 
	C496.639679,539.597534 498.229736,528.181580 499.952881,516.388794 
	C502.368195,517.350769 504.519104,519.050476 506.964722,519.940125 
	C510.294983,521.151672 513.831299,522.303345 517.315063,522.421204 
	C519.959534,522.510559 522.659912,520.946655 525.694092,520.067810 
	C524.165894,532.126526 522.279175,544.235901 520.202576,556.688965 
z"/>
<path fill="#014DB4" opacity="1.000000" stroke="none" 
	d="
M510.624573,622.037781 
	C509.009674,633.328918 507.394775,644.620056 505.709961,656.400146 
	C496.916199,656.400146 488.381134,656.400146 479.201660,656.400146 
	C480.719269,646.212646 482.243744,635.978821 484.177795,625.616699 
	C485.935455,626.294739 487.261200,627.730530 488.636169,627.779236 
	C491.695435,627.887878 494.813629,626.862000 497.845581,627.097900 
	C503.068237,627.504395 507.364227,626.257263 510.624573,622.037781 
z"/>
<path fill="#04A29A" opacity="1.000000" stroke="none" 
	d="
M706.620605,356.228760 
	C707.698425,355.172974 708.660339,353.392487 709.914734,353.154633 
	C716.680115,351.871918 723.635315,351.443542 730.293457,349.788696 
	C735.498291,348.495117 740.339233,345.775238 745.395630,343.828613 
	C747.469727,343.030151 749.684998,342.598450 752.226807,341.992157 
	C746.296143,355.670441 739.974731,369.356415 733.808105,382.707397 
	C725.157837,374.311707 716.693481,366.096436 707.973511,357.303528 
	C707.373718,356.556030 707.029419,356.386139 706.685181,356.216248 
	C706.685181,356.216248 706.639709,356.216034 706.620605,356.228760 
z"/>
<path fill="#31B46A" opacity="1.000000" stroke="none" 
	d="
M499.817078,363.526642 
	C493.919556,365.705444 488.126312,367.474792 482.372986,369.365631 
	C465.551544,374.894043 448.738953,380.449646 431.941040,386.049011 
	C429.024078,387.021362 426.204926,388.191223 423.763885,384.511658 
	C428.561066,378.837311 433.532837,373.579132 439.153137,368.339539 
	C442.190491,368.892059 444.790955,370.312836 446.930573,369.802338 
	C455.048157,367.865540 463.244171,365.881012 470.983490,362.830261 
	C480.789551,358.964783 490.525269,355.202576 501.072327,354.012878 
	C500.694763,357.066132 500.317169,360.119415 499.817078,363.526642 
z"/>
<path fill="#015EB9" opacity="1.000000" stroke="none" 
	d="
M510.762878,621.636719 
	C507.364227,626.257263 503.068237,627.504395 497.845581,627.097900 
	C494.813629,626.862000 491.695435,627.887878 488.636169,627.779236 
	C487.261200,627.730530 485.935455,626.294739 484.312378,625.246460 
	C485.275879,616.249878 486.514343,607.495178 487.893311,598.371948 
	C489.211578,601.648010 492.251892,601.436768 494.112213,599.684570 
	C499.945923,594.189758 506.297485,595.209961 513.401367,597.304077 
	C513.831543,597.704468 513.741821,597.944763 513.347168,598.751343 
	C513.077026,600.931396 513.058594,602.525208 513.040100,604.119019 
	C512.327087,609.824585 511.614136,615.530151 510.762878,621.636719 
z"/>
<path fill="#3EB862" opacity="1.000000" stroke="none" 
	d="
M501.251587,353.672058 
	C490.525269,355.202576 480.789551,358.964783 470.983490,362.830261 
	C463.244171,365.881012 455.048157,367.865540 446.930573,369.802338 
	C444.790955,370.312836 442.190491,368.892059 439.462677,368.208374 
	C452.552063,356.095062 468.595428,349.189667 485.582947,344.172546 
	C491.127991,342.534882 496.771332,341.230133 503.277252,339.536926 
	C502.598328,344.609070 502.014557,348.970184 501.251587,353.672058 
z"/>
<path fill="#04A29A" opacity="1.000000" stroke="none" 
	d="
M538.220276,438.674133 
	C536.673706,435.062042 533.525452,434.026459 529.789185,434.008972 
	C524.910461,433.986176 520.031616,434.003387 514.536987,434.003387 
	C514.253784,434.687836 513.609680,436.244690 512.614502,437.901093 
	C513.545532,429.270996 514.827576,420.541321 516.599243,411.345276 
	C525.819946,408.939148 534.551086,406.999420 543.282227,405.059692 
	C541.656006,416.151276 540.029846,427.242859 538.220276,438.674133 
z"/>
<path fill="#0FA98B" opacity="1.000000" stroke="none" 
	d="
M543.489990,404.739563 
	C534.551086,406.999420 525.819946,408.939148 516.733643,410.944977 
	C517.777161,401.579010 519.175903,392.146912 521.165771,382.358551 
	C529.487488,384.013855 536.332214,382.428650 542.585754,377.386932 
	C543.659180,376.521545 545.898987,377.102814 547.599976,377.015808 
	C546.299255,386.150360 544.998596,395.284912 543.489990,404.739563 
z"/>
<path fill="#0159B7" opacity="1.000000" stroke="none" 
	d="
M401.299866,647.223877 
	C402.565491,646.018066 404.091614,644.317322 405.732880,644.197937 
	C407.736115,644.052124 409.989960,644.933228 411.867645,645.893616 
	C420.485016,650.301270 427.799438,647.510864 433.927643,641.377319 
	C439.258270,636.041992 445.011383,632.125305 452.475006,630.573730 
	C454.793884,630.091614 456.840973,628.301819 459.350128,627.058655 
	C458.256866,636.431519 456.825958,645.856445 455.305542,655.871094 
	C437.117737,654.460938 419.202454,652.056396 401.299866,647.223877 
z"/>
<path fill="#1DAD7E" opacity="1.000000" stroke="none" 
	d="
M547.757019,376.622803 
	C545.898987,377.102814 543.659180,376.521545 542.585754,377.386932 
	C536.332214,382.428650 529.487488,384.013855 521.327881,382.000488 
	C521.962036,373.492828 523.025208,364.986938 524.733215,356.226898 
	C527.130615,356.073090 528.923218,356.460999 530.628662,356.223267 
	C537.490601,355.266663 544.325684,354.116638 551.170654,353.038116 
	C550.085144,360.768677 548.999573,368.499207 547.757019,376.622803 
z"/>
<path fill="#31B46A" opacity="1.000000" stroke="none" 
	d="
M551.365356,352.704468 
	C544.325684,354.116638 537.490601,355.266663 530.628662,356.223267 
	C528.923218,356.460999 527.130615,356.073090 524.962769,355.900085 
	C525.442932,349.777039 526.338379,343.726685 527.330017,337.026489 
	C536.038208,336.434570 544.671326,335.847778 553.939087,335.217834 
	C553.088684,341.349701 552.324402,346.860260 551.365356,352.704468 
z"/>
<path fill="#013EAB" opacity="1.000000" stroke="none" 
	d="
M590.534119,668.540405 
	C594.176880,669.186401 594.747375,670.629089 592.341003,673.170410 
	C588.603149,677.117859 570.583008,681.683044 565.580078,679.593689 
	C563.913940,678.897827 562.658752,677.218018 560.807617,675.921143 
	C561.353088,675.569092 562.306519,675.283997 563.862610,675.286377 
	C565.257446,675.176636 566.049622,674.779480 566.841858,674.382385 
	C574.627075,672.437317 582.412231,670.492249 590.534119,668.540405 
z"/>
<path fill="#0246B9" opacity="1.000000" stroke="none" 
	d="
M664.573486,628.910278 
	C663.427734,630.223938 661.941528,631.580444 660.066162,632.905396 
	C661.195679,631.566895 662.714417,630.260010 664.573486,628.910278 
z"/>
<path fill="#0159B7" opacity="1.000000" stroke="none" 
	d="
M393.319153,645.110413 
	C394.961395,645.306885 396.899353,645.683350 398.917114,646.382080 
	C397.202881,646.233032 395.408905,645.761780 393.319153,645.110413 
z"/>
<path fill="#0138A5" opacity="1.000000" stroke="none" 
	d="
M376.346619,731.094238 
	C377.622772,731.022827 379.237427,731.103577 380.924744,731.527344 
	C379.559967,731.662415 378.122559,731.454407 376.346619,731.094238 
z"/>
<path fill="#49BB59" opacity="1.000000" stroke="none" 
	d="
M513.350159,310.776123 
	C514.223816,310.343872 515.446106,309.965393 516.868713,309.866455 
	C515.945618,310.373932 514.822205,310.601898 513.350159,310.776123 
z"/>
<path fill="#04A29A" opacity="1.000000" stroke="none" 
	d="
M537.339600,446.213806 
	C537.237854,444.881287 537.313843,443.194672 537.627441,441.272888 
	C537.749084,442.645020 537.633179,444.252350 537.339600,446.213806 
z"/>
<path fill="#0169BB" opacity="1.000000" stroke="none" 
	d="
M513.216797,603.780457 
	C513.058594,602.525208 513.077026,600.931396 513.184998,598.862793 
	C513.314148,600.072693 513.353821,601.757263 513.216797,603.780457 
z"/>
<path fill="#0167C0" opacity="1.000000" stroke="none" 
	d="
M666.791138,558.542480 
	C666.600952,557.430054 666.546082,555.922546 666.758362,554.201416 
	C666.992493,555.374329 666.959473,556.760864 666.791138,558.542480 
z"/>
<path fill="#0138A5" opacity="1.000000" stroke="none" 
	d="
M566.473572,674.380127 
	C566.049622,674.779480 565.257446,675.176636 564.240784,675.325439 
	C564.712646,674.844055 565.408997,674.610962 566.473572,674.380127 
z"/>
<path fill="#024CB9" opacity="1.000000" stroke="none" 
	d="
M649.260132,599.816406 
	C649.259644,599.398438 649.528625,598.842957 650.108154,598.199280 
	C650.122253,598.633667 649.825867,599.156250 649.260132,599.816406 
z"/>
<path fill="#015EB9" opacity="1.000000" stroke="none" 
	d="
M359.876709,632.332397 
	C360.069366,632.208740 360.376587,632.334412 360.831909,632.664856 
	C360.650452,632.773682 360.320862,632.677673 359.876709,632.332397 
z"/>
<path fill="#0FA98B" opacity="1.000000" stroke="none" 
	d="
M706.794983,356.482391 
	C707.029419,356.386139 707.373718,356.556030 707.810547,357.010315 
	C707.570374,357.112640 707.237610,356.930573 706.794983,356.482391 
z"/>
<path fill="#0BA790" opacity="1.000000" stroke="none" 
	d="
M685.915955,371.753662 
	C685.653198,371.893829 685.398376,371.697052 685.115723,371.187256 
	C685.299316,371.142181 685.577942,371.323029 685.915955,371.753662 
z"/>
<path fill="#0169BB" opacity="1.000000" stroke="none" 
	d="
M329.733215,614.396240 
	C329.961578,614.321411 330.311707,614.520752 330.741028,615.024292 
	C330.498474,615.109070 330.176727,614.889709 329.733215,614.396240 
z"/>
<path fill="#0BA790" opacity="1.000000" stroke="none" 
	d="
M686.798706,372.794800 
	C686.566162,372.897339 686.342224,372.702240 686.085327,372.235229 
	C686.327698,372.092590 686.579285,372.270538 686.798706,372.794800 
z"/>
<path fill="#024CB9" opacity="1.000000" stroke="none" 
	d="
M648.312500,601.036072 
	C648.225830,600.849487 648.378662,600.556885 648.745361,600.132324 
	C648.823425,600.310303 648.687744,600.620178 648.312500,601.036072 
z"/>
</svg>